#!OML:ASF G:\JayActor3\Patient Classification 1\Patient 1\Session 6\male.ASF
:FULLY-SPECIFIED
:DEGREES
2466
root -2.28963 15.1036 9.7072 -176.519 -49.2956 191.359
lowerback 30.1655 3.58664 2.80474
upperback 10.7753 3.28583 -3.1677
thorax -3.96065 1.00558 -6.14653
lowerneck 7.53821 8.9168 7.63224
upperneck -12.9638 10.9567 -17.127
head -3.61459 6.11837 -7.02992
rclavicle 4.05521e-014 1.98785e-014
rhumerus -20.235 21.4123 -85.041
rradius 128.28
rwrist 14.4508
rhand 11.647 -19.2122
rfingers 7.12502
rthumb 36.6867 -45.357
lclavicle 4.05521e-014 1.98785e-014
lhumerus -22.602 -7.98757 73.5458
lradius 126.799
lwrist 8.90621
lhand 1.32337 39.2622
lfingers 7.12502
lthumb 26.8573 67.3747
rfemur -25.8849 -20.5943 29.122
rtibia 59.8331
rfoot -42.1443 -26.9909
rtoes -7.61735
lfemur -55.9487 3.49579 -6.20481
ltibia 56.468
lfoot -3.21102 -25.5584
ltoes 17.9891
2467
root -2.23745 15.1001 9.70728 -176.57 -49.3201 191.244
lowerback 30.1883 3.59552 2.76027
upperback 10.8151 3.27208 -3.20657
thorax -3.92781 0.99686 -6.16007
lowerneck 7.57449 8.91563 7.60531
upperneck -12.9895 10.9544 -17.0913
head -3.63283 6.11824 -7.01829
rclavicle 1.20861e-013 -4.13472e-014
rhumerus -20.1608 21.6672 -85.0845
rradius 128.254
rwrist 14.3968
rhand 11.6601 -19.2009
rfingers 7.12502
rthumb 36.6992 -45.3426
lclavicle 1.20861e-013 -4.13472e-014
lhumerus -22.6482 -7.85946 73.5378
lradius 126.822
lwrist 8.91674
lhand 1.32163 39.2488
lfingers 7.12502
lthumb 26.8556 67.3615
rfemur -25.9345 -20.6871 29.1006
rtibia 60.0252
rfoot -42.1221 -26.6595
rtoes -7.78085
lfemur -55.8522 3.37633 -6.09936
ltibia 56.2721
lfoot -3.02778 -25.4258
ltoes 18.0085
2468
root -2.18538 15.0962 9.70793 -176.631 -49.3207 191.138
lowerback 30.2134 3.60689 2.73308
upperback 10.8538 3.26554 -3.24989
thorax -3.8948 0.991946 -6.19109
lowerneck 7.61557 8.90798 7.58801
upperneck -13.0156 10.9462 -17.0435
head -3.65299 6.11417 -7.00472
rclavicle -5.96354e-014 0
rhumerus -20.0816 21.9012 -85.1331
rradius 128.218
rwrist 14.346
rhand 11.6658 -19.196
rfingers 7.12502
rthumb 36.7045 -45.3362
lclavicle -5.96354e-014 0
lhumerus -22.6803 -7.75946 73.5128
lradius 126.838
lwrist 8.93519
lhand 1.31225 39.2402
lfingers 7.12502
lthumb 26.8467 67.3543
rfemur -25.9782 -20.7597 29.0817
rtibia 60.2113
rfoot -42.0803 -26.3504
rtoes -8.02683
lfemur -55.7497 3.27264 -5.98485
ltibia 56.0804
lfoot -2.84662 -25.2897
ltoes 18.0476
2469
root -2.133 15.0917 9.70922 -176.704 -49.2951 191.049
lowerback 30.2417 3.62136 2.72054
upperback 10.89 3.26665 -3.2946
thorax -3.86368 0.990904 -6.23485
lowerneck 7.66009 8.89558 7.57461
upperneck -13.0437 10.9333 -16.9841
head -3.67544 6.10705 -6.98844
rclavicle 2.22639e-014 -1.26427e-013
rhumerus -20.0121 22.1193 -85.1888
rradius 128.186
rwrist 14.2971
rhand 11.6644 -19.1933
rfingers 7.12502
rthumb 36.7032 -45.334
lclavicle 2.22639e-014 -1.26427e-013
lhumerus -22.6895 -7.68298 73.4608
lradius 126.842
lwrist 8.97817
lhand 1.27863 39.2181
lfingers 7.12502
lthumb 26.8145 67.3371
rfemur -26.0231 -20.8059 29.0779
rtibia 60.3929
rfoot -42.0276 -26.0716
rtoes -8.35082
lfemur -55.6461 3.18917 -5.85341
ltibia 55.897
lfoot -2.67429 -25.1572
ltoes 18.0985
2470
root -2.0804 15.0864 9.71107 -176.787 -49.2466 190.973
lowerback 30.2687 3.63762 2.7201
upperback 10.9266 3.27297 -3.33864
thorax -3.82994 0.992578 -6.28643
lowerneck 7.71088 8.88011 7.55897
upperneck -13.0762 10.9167 -16.9167
head -3.7014 6.09794 -6.96997
rclavicle 1.11319e-014 -1.11319e-014
rhumerus -19.9499 22.3268 -85.2466
rradius 128.155
rwrist 14.2483
rhand 11.6518 -19.1952
rfingers 7.12502
rthumb 36.6913 -45.3388
lclavicle 1.11319e-014 -1.11319e-014
lhumerus -22.7095 -7.643 73.4567
lradius 126.846
lwrist 8.97171
lhand 1.22734 39.1755
lfingers 7.12502
lthumb 26.7654 67.302
rfemur -26.067 -20.83 29.0872
rtibia 60.5684
rfoot -41.9725 -25.8236
rtoes -8.74168
lfemur -55.5408 3.1259 -5.70974
ltibia 55.723
lfoot -2.50946 -25.0339
ltoes 18.157
2471
root -2.0264 15.0792 9.71398 -176.894 -49.1724 190.942
lowerback 30.2964 3.65471 2.73891
upperback 10.9577 3.28706 -3.37476
thorax -3.80091 0.998305 -6.34295
lowerneck 7.76826 8.86341 7.54426
upperneck -13.1163 10.8979 -16.85
head -3.73093 6.08808 -6.95264
rclavicle -2.06736e-014 3.02153e-014
rhumerus -19.8963 22.5315 -85.3074
rradius 128.13
rwrist 14.1979
rhand 11.6316 -19.202
rfingers 7.12502
rthumb 36.6722 -45.3505
lclavicle -2.06736e-014 3.02153e-014
lhumerus -22.7143 -7.61499 73.4458
lradius 126.848
lwrist 8.96551
lhand 1.19384 39.1559
lfingers 7.12502
lthumb 26.7334 67.2873
rfemur -26.1386 -20.8161 29.1496
rtibia 60.7439
rfoot -41.9254 -25.6222
rtoes -9.18571
lfemur -55.4566 3.09739 -5.52813
ltibia 55.5592
lfoot -2.37839 -24.9279
ltoes 18.0881
2472
root -1.97206 15.0716 9.71762 -176.997 -49.0845 190.905
lowerback 30.3243 3.67068 2.75435
upperback 10.992 3.29808 -3.4085
thorax -3.76902 1.00222 -6.39376
lowerneck 7.82984 8.8484 7.52099
upperneck -13.1653 10.8797 -16.7824
head -3.76433 6.07902 -6.9344
rclavicle -4.85035e-014 7.63333e-014
rhumerus -19.8618 22.7352 -85.3706
rradius 128.12
rwrist 14.1501
rhand 11.6074 -19.2119
rfingers 7.12502
rthumb 36.6493 -45.3662
lclavicle -4.85035e-014 7.63333e-014
lhumerus -22.7366 -7.601 73.493
lradius 126.859
lwrist 8.89498
lhand 1.18742 39.1506
lfingers 7.12502
lthumb 26.7272 67.283
rfemur -26.2134 -20.8012 29.2123
rtibia 60.9154
rfoot -41.8833 -25.4429
rtoes -9.67757
lfemur -55.3684 3.07186 -5.34738
ltibia 55.3992
lfoot -2.31232 -24.831
ltoes 17.887
2473
root -1.91746 15.0639 9.72196 -177.087 -48.983 190.851
lowerback 30.3525 3.68696 2.75738
upperback 11.0311 3.305 -3.43986
thorax -3.73351 1.00351 -6.43326
lowerneck 7.88985 8.83679 7.49119
upperneck -13.2188 10.8641 -16.7197
head -3.79851 6.07181 -6.9168
rclavicle -6.75868e-014 1.03368e-014
rhumerus -19.8292 22.9415 -85.4289
rradius 128.113
rwrist 14.1035
rhand 11.5837 -19.2246
rfingers 7.12502
rthumb 36.6268 -45.3846
lclavicle -6.75868e-014 1.03368e-014
lhumerus -22.7455 -7.58241 73.5333
lradius 126.867
lwrist 8.84776
lhand 1.16855 39.1379
lfingers 7.12502
lthumb 26.7092 67.273
rfemur -26.2899 -20.7848 29.2657
rtibia 61.0845
rfoot -41.8598 -25.2635
rtoes -10.1522
lfemur -55.2728 3.04965 -5.17772
ltibia 55.2401
lfoot -2.32941 -24.7352
ltoes 17.4721
2474
root -1.86259 15.0559 9.72695 -177.173 -48.8674 190.792
lowerback 30.3769 3.70339 2.74987
upperback 11.0768 3.30852 -3.46303
thorax -3.69062 1.00255 -6.45585
lowerneck 7.93962 8.83269 7.45581
upperneck -13.2722 10.8562 -16.6692
head -3.8295 6.06896 -6.90149
rclavicle -2.94201e-014 6.2816e-014
rhumerus -19.7908 23.1526 -85.4753
rradius 128.107
rwrist 14.0574
rhand 11.5582 -19.2175
rfingers 7.12502
rthumb 36.6027 -45.3836
lclavicle -2.94201e-014 6.2816e-014
lhumerus -22.7435 -7.54931 73.5781
lradius 126.876
lwrist 8.79555
lhand 1.18558 39.152
lfingers 7.12502
lthumb 26.7255 67.2846
rfemur -26.369 -20.7677 29.3206
rtibia 61.2502
rfoot -41.8561 -25.0776
rtoes -10.5893
lfemur -55.1715 3.03322 -5.00943
ltibia 55.0813
lfoot -2.48096 -24.6402
ltoes 16.713
2475
root -1.80737 15.048 9.73258 -177.249 -48.7443 190.721
lowerback 30.3985 3.71849 2.72682
upperback 11.128 3.30571 -3.47783
thorax -3.64295 0.997742 -6.45763
lowerneck 7.9811 8.8344 7.40474
upperneck -13.3233 10.8539 -16.6194
head -3.8586 6.06922 -6.88335
rclavicle 7.63333e-014 5.80451e-014
rhumerus -19.7464 23.3671 -85.5075
rradius 128.098
rwrist 14.0128
rhand 11.5521 -19.2238
rfingers 7.12502
rthumb 36.5969 -45.3914
lclavicle 7.63333e-014 5.80451e-014
lhumerus -22.7239 -7.50187 73.6088
lradius 126.874
lwrist 8.77989
lhand 1.18945 39.1521
lfingers 7.12502
lthumb 26.7292 67.2842
rfemur -26.4542 -20.755 29.3703
rtibia 61.4166
rfoot -41.8664 -24.8885
rtoes -10.9789
lfemur -55.0665 3.01458 -4.84903
ltibia 54.9215
lfoot -2.64024 -24.5216
ltoes 15.932
2476
root -1.7517 15.0399 9.73881 -177.319 -48.6122 190.647
lowerback 30.4158 3.7335 2.69638
upperback 11.1796 3.30144 -3.48473
thorax -3.59426 0.991867 -6.44547
lowerneck 8.02249 8.83886 7.34546
upperneck -13.3697 10.8544 -16.5708
head -3.8864 6.07127 -6.86408
rclavicle 1.16885e-013 7.07673e-014
rhumerus -19.6897 23.5766 -85.5279
rradius 128.075
rwrist 13.9728
rhand 11.5669 -19.2425
rfingers 7.12502
rthumb 36.6109 -45.4065
lclavicle 1.16885e-013 7.07673e-014
lhumerus -22.6844 -7.44679 73.6114
lradius 126.862
lwrist 8.80292
lhand 1.19526 39.1594
lfingers 7.12502
lthumb 26.7347 67.2906
rfemur -26.5537 -20.7383 29.4251
rtibia 61.5887
rfoot -41.8909 -24.6973
rtoes -11.3131
lfemur -54.9663 3.00321 -4.69109
ltibia 54.7633
lfoot -2.73963 -24.3762
ltoes 15.2846
